<svg width="388" height="198" viewBox="0 0 388 198" fill="none" xmlns="http://www.w3.org/2000/svg">
<mask id="mask0_3739_117" style="mask-type:luminance" maskUnits="userSpaceOnUse" x="0" y="0" width="306" height="106">
<path d="M305.333 0H0V105.333H305.333V0Z" fill="white"/>
</mask>
<g mask="url(#mask0_3739_117)">
<path d="M6.79517 78.9237V5.00708H44.4827C52.717 5.00708 59.066 6.75708 63.5243 10.2571C67.9931 13.7467 70.2327 18.7102 70.2327 25.1529C70.2327 29.2362 69.1545 32.6477 67.0035 35.3821C64.8629 38.106 61.7848 39.9862 57.7743 41.0279V41.1321C62.2743 42.0383 65.7431 43.9602 68.191 46.9029C70.6493 49.8508 71.8785 53.6685 71.8785 58.3612C71.8785 64.8769 69.5764 69.9342 64.9827 73.5279C60.3837 77.1269 53.8629 78.9237 45.4202 78.9237H6.79517ZM24.5452 35.6321H41.6702C45.1389 35.6321 47.8264 34.856 49.7327 33.2987C51.6337 31.7467 52.5868 29.5487 52.5868 26.7154C52.5868 24.0071 51.6337 21.8977 49.7327 20.3821C47.8264 18.856 45.1389 18.0904 41.6702 18.0904H24.5452V35.6321ZM24.5452 65.7362H42.191C46.066 65.7362 49.0348 64.9446 51.1077 63.3612C53.191 61.7675 54.2327 59.5175 54.2327 56.6112C54.2327 53.4862 53.191 51.1008 51.1077 49.4446C49.0348 47.7779 46.066 46.9446 42.191 46.9446H24.5452V65.7362Z" fill="#FAECDD"/>
<path d="M114.873 81.5279C106.634 81.5279 99.4565 79.882 93.3315 76.5904C87.2065 73.2987 82.4409 68.6945 79.0399 62.7779C75.6493 56.8612 73.9565 49.9237 73.9565 41.9654C73.9565 34.007 75.6493 27.0695 79.0399 21.1529C82.4409 15.2362 87.2065 10.6425 93.3315 7.36121C99.4565 4.06954 106.634 2.42371 114.873 2.42371C123.175 2.42371 130.394 4.06954 136.519 7.36121C142.644 10.6425 147.399 15.2362 150.79 21.1529C154.175 27.0695 155.873 34.007 155.873 41.9654C155.873 49.9237 154.175 56.8612 150.79 62.7779C147.399 68.6945 142.644 73.2987 136.519 76.5904C130.394 79.882 123.175 81.5279 114.873 81.5279ZM114.873 66.257C119.582 66.257 123.675 65.257 127.165 63.257C130.665 61.2466 133.363 58.4029 135.269 54.7362C137.17 51.0695 138.123 46.8143 138.123 41.9654C138.123 37.0487 137.17 32.757 135.269 29.0904C133.363 25.4237 130.665 22.5904 127.165 20.5904C123.675 18.58 119.582 17.5695 114.873 17.5695C110.233 17.5695 106.165 18.58 102.665 20.5904C99.1753 22.5904 96.4826 25.4237 94.5815 29.0904C92.6753 32.757 91.7274 37.0487 91.7274 41.9654C91.7274 46.8143 92.6753 51.0695 94.5815 54.7362C96.4826 58.4029 99.1753 61.2466 102.665 63.257C106.165 65.257 110.233 66.257 114.873 66.257Z" fill="#FAECDD"/>
<path d="M216.297 80.7987C212.631 80.7987 209.568 79.7779 207.11 77.7362C204.651 75.6946 202.901 72.9446 201.86 69.4862L198.651 58.6737C198.026 56.4654 196.985 54.6425 195.526 53.1946C194.079 51.7362 192.282 51.0071 190.131 51.0071H178.818V78.9237H161.068V5.00708H197.818C206.61 5.00708 213.547 7.04875 218.631 11.1321C223.714 15.2154 226.256 20.7883 226.256 27.8404C226.256 32.6894 224.714 36.8977 221.631 40.4654C218.558 44.0227 214.256 46.4967 208.714 47.8821V47.9862C210.657 48.7519 212.177 49.8612 213.276 51.3196C214.386 52.7675 215.256 54.5644 215.881 56.7154L218.276 65.4237C218.62 66.5383 219.12 67.4758 219.776 68.2362C220.427 69.0019 221.308 69.3821 222.422 69.3821C223.391 69.3821 224.323 69.106 225.214 68.5487C226.115 67.9967 226.912 67.2675 227.61 66.3612L231.36 74.7779C229.552 76.5696 227.329 78.0227 224.693 79.1321C222.068 80.2415 219.266 80.7987 216.297 80.7987ZM178.818 38.8612H195.526C199.469 38.8612 202.615 37.9237 204.964 36.0487C207.323 34.1737 208.506 31.6477 208.506 28.4654C208.506 25.356 207.323 22.8508 204.964 20.9446C202.615 19.0435 199.469 18.0904 195.526 18.0904H178.818V38.8612Z" fill="#FAECDD"/>
<path d="M233.948 78.9237V5.00708H254.719L284.823 57.6321H285.031V5.00708H301.844V78.9237H280.969L250.865 26.4029H250.656V78.9237H233.948Z" fill="#FAECDD"/>
</g>
<mask id="mask1_3739_117" style="mask-type:luminance" maskUnits="userSpaceOnUse" x="50" y="92" width="285" height="106">
<path d="M334.667 92H50.6665V197.333H334.667V92Z" fill="white"/>
</mask>
<g mask="url(#mask1_3739_117)">
<path d="M75.5168 170.619V111.994H53.4751V96.89H115.288V111.994H93.2251V170.619H75.5168Z" fill="#FAECDD"/>
<path d="M159.106 173.203C150.882 173.203 143.715 171.562 137.606 168.286C131.491 165.01 126.741 160.421 123.356 154.515C119.981 148.614 118.293 141.692 118.293 133.744C118.293 125.817 119.981 118.9 123.356 112.994C126.741 107.093 131.491 102.505 137.606 99.2234C143.715 95.9317 150.882 94.2859 159.106 94.2859C167.382 94.2859 174.575 95.9317 180.689 99.2234C186.799 102.505 191.543 107.093 194.918 112.994C198.304 118.9 200.002 125.817 200.002 133.744C200.002 141.692 198.304 148.614 194.918 154.515C191.543 160.421 186.799 165.01 180.689 168.286C174.575 171.562 167.382 173.203 159.106 173.203ZM159.106 157.994C163.799 157.994 167.887 156.994 171.377 154.994C174.861 152.984 177.549 150.15 179.439 146.494C181.34 142.828 182.293 138.578 182.293 133.744C182.293 128.843 181.34 124.567 179.439 120.911C177.549 117.244 174.861 114.411 171.377 112.411C167.887 110.411 163.799 109.411 159.106 109.411C154.481 109.411 150.424 110.411 146.939 112.411C143.45 114.411 140.757 117.244 138.856 120.911C136.95 124.567 136.002 128.843 136.002 133.744C136.002 138.578 136.95 142.828 138.856 146.494C140.757 150.15 143.45 152.984 146.939 154.994C150.424 156.994 154.481 157.994 159.106 157.994Z" fill="#FAECDD"/>
<path d="M228.375 170.619V96.89H278.813V111.994H246.083V129.411H272.708V142.869H246.083V170.619H228.375Z" fill="#FAECDD"/>
<path d="M284.713 170.619V96.89H302.422V155.39H333.088V170.619H284.713Z" fill="#FAECDD"/>
</g>
<mask id="mask2_3739_117" style="mask-type:luminance" maskUnits="userSpaceOnUse" x="317" y="92" width="71" height="106">
<path d="M388 92H317.333V197.333H388V92Z" fill="white"/>
</mask>
<g mask="url(#mask2_3739_117)">
<mask id="mask3_3739_117" style="mask-type:luminance" maskUnits="userSpaceOnUse" x="317" y="96" width="71" height="75">
<path d="M317.807 96H387.885V170.667H317.807V96Z" fill="white"/>
</mask>
<g mask="url(#mask3_3739_117)">
<path d="M344.291 170.619V144.619L318.395 96.89H337.041L353.083 129.098H353.291L368.416 96.89H387.374L361.999 144.619V170.619H344.291Z" fill="#FAECDD"/>
</g>
</g>
<path d="M347.972 63.1417C347.767 63.4814 347.575 63.7998 347.391 64.097C345.463 67.2941 344.781 68.4235 344.23 68.3641C343.876 68.3258 343.574 67.8036 343.032 67.0309C338.459 60.4881 331.058 52.4125 324.51 45.9718C320.498 42.0248 321.345 42.1803 325.683 38.4185C329.966 34.7034 331.327 33.315 335.882 28.0375C340.425 22.7812 345.028 15.9199 349.29 8.07365C351.713 3.61129 352.89 3.89151 356.038 9.67858C360.355 17.6225 365.478 24.8276 370.883 30.5637C372.359 32.1304 373.566 33.591 373.566 33.8118C373.566 34.0283 371.659 35.8583 369.33 37.8793C361.49 44.6768 353.253 54.4166 347.972 63.1417ZM353.615 80.2566C353.253 80.6642 352.634 80.9996 352.237 80.9996C351.26 80.9996 350.446 79.9976 348.867 76.8599L347.532 74.2063L348.876 71.5527C352.22 64.9377 357.676 57.2613 364.164 50.0349C367.274 46.5747 376.228 38.2359 377.281 37.8198C377.567 37.7052 378.86 38.5289 380.161 39.6455C383.236 42.2864 383.292 43.2672 380.498 45.7637C369.279 55.788 360.846 66.3048 355.646 76.7538C354.891 78.2695 353.978 79.849 353.615 80.2566Z" fill="#FAECDD"/>
</svg>
