<svg xmlns="http://www.w3.org/2000/svg" viewBox="-16 -16 581 182" fill="currentColor" color="#FFFFFF" role="img" aria-label="PIPA"><g transform="translate(-22.38,-8.39) scale(0.8394)"><path d="M88 146.94C87.52 147.74 87.07 148.49 86.64 149.19C82.12 156.72 80.52 159.38 79.23 159.24C78.4 159.15 77.69 157.92 76.42 156.1C65.7 140.69 48.3501 121.67 33.0001 106.5C23.5957 97.2039 25.5806 97.5702 35.75 88.71C45.79 79.96 48.98 76.69 59.66 64.26C70.31 51.88 81.1 35.72 91.09 17.24C96.77 6.72997 99.53 7.38997 106.91 21.02C117.03 39.73 129.04 56.7 141.71 70.21C145.17 73.9 148 77.34 148 77.86C148 78.37 143.53 82.68 138.07 87.44C119.69 103.45 100.38 126.39 88 146.94ZM101.23 187.25C100.38 188.21 98.93 189 98 189C95.71 189 93.8 186.64 90.1 179.25L86.97 173L90.12 166.75C97.96 151.17 110.75 133.09 125.96 116.07C133.25 107.92 154.24 88.28 156.71 87.3C157.38 87.03 160.41 88.97 163.46 91.6C170.67 97.82 170.8 100.13 164.25 106.01C137.95 129.62 118.18 154.39 105.99 179C104.22 182.57 102.08 186.29 101.23 187.25Z"/></g><g transform="translate(157.2,16)"><g fill="none" stroke="currentColor" stroke-width="17" stroke-linecap="round" stroke-linejoin="round"><path d="M16.5 24.5 H104.5 V70 H16.5 V93.5"/><path d="M136.5 24.5 V93.5"/><path d="M175.5 24.5 H261.5 V70 H175.5 V93.5"/><path d="M292.5 93.5 V66 A45.5 45.5 0 0 1 383.5 66 V93.5"/></g><path d="M338 55 L354 71 L338 87 L322 71 Z" fill="currentColor" stroke="currentColor" stroke-width="5" stroke-linejoin="round"/></g></svg>