<svg width="65" height="80" viewBox="0 0 65 80" fill="none" xmlns="http://www.w3.org/2000/svg">
<path d="M28.094 60.5096C27.8889 60.8514 27.6966 61.1719 27.5129 61.471C25.5816 64.6883 24.898 65.8248 24.3468 65.765C23.9922 65.7266 23.6888 65.201 23.1462 64.4234C18.5659 57.8392 11.1529 49.7126 4.59432 43.2309C0.576133 39.259 1.42422 39.4155 5.76926 35.6299C10.059 31.8913 11.422 30.4941 15.9852 25.1832C20.5356 19.8936 25.1458 12.989 29.4142 5.0931C31.8411 0.602507 33.0204 0.884504 36.1736 6.70817C40.4975 14.7023 45.629 21.953 51.0425 27.7254C52.5208 29.302 53.73 30.7718 53.73 30.994C53.73 31.2119 51.8201 33.0534 49.4872 35.0872C41.6341 41.9278 33.3835 51.7293 28.094 60.5096ZM33.7467 77.7328C33.3835 78.1429 32.764 78.4805 32.3666 78.4805C31.3882 78.4805 30.5721 77.4721 28.9912 74.3146L27.6539 71.6442L28.9998 68.9738C32.3495 62.317 37.8143 54.592 44.313 47.3199C47.4278 43.8377 56.3961 35.4461 57.4515 35.0274C57.7378 34.9121 59.0324 35.741 60.3355 36.8647C63.4161 39.5223 63.4717 40.5093 60.6731 43.0216C49.436 53.1094 40.9889 63.6928 35.7805 74.2078C35.0242 75.7331 34.1099 77.3226 33.7467 77.7328Z" fill="white"/>
</svg>
