<svg width="503" height="112" viewBox="0 0 503 112" fill="none" xmlns="http://www.w3.org/2000/svg">
<path d="M33.094 71.5096C32.8889 71.8514 32.6966 72.1719 32.5129 72.471C30.5816 75.6883 29.898 76.8248 29.3468 76.765C28.9922 76.7266 28.6888 76.201 28.1462 75.4234C23.5659 68.8392 16.1529 60.7126 9.59432 54.2309C5.57613 50.259 6.42422 50.4155 10.7693 46.6299C15.059 42.8913 16.422 41.4941 20.9852 36.1832C25.5356 30.8936 30.1458 23.989 34.4142 16.0931C36.8411 11.6025 38.0204 11.8845 41.1736 17.7082C45.4975 25.7023 50.629 32.953 56.0425 38.7254C57.5208 40.302 58.73 41.7718 58.73 41.994C58.73 42.2119 56.8201 44.0534 54.4872 46.0872C46.6341 52.9278 38.3835 62.7293 33.094 71.5096ZM38.7467 88.7328C38.3835 89.1429 37.764 89.4805 37.3666 89.4805C36.3882 89.4805 35.5721 88.4721 33.9912 85.3146L32.6539 82.6442L33.9998 79.9738C37.3495 73.317 42.8143 65.592 49.313 58.3199C52.4278 54.8377 61.3961 46.4461 62.4515 46.0274C62.7378 45.9121 64.0324 46.741 65.3355 47.8647C68.4161 50.5223 68.4717 51.5093 65.6731 54.0216C54.436 64.1094 45.9889 74.6928 40.7805 85.2078C40.0242 86.7331 39.1099 88.3226 38.7467 88.7328Z" fill="#FAECDD"/>
<path d="M108.7 19.9805H196.7V65.4805H108.7V88.9805" stroke="#FAECDD" stroke-width="17" stroke-linecap="round" stroke-linejoin="round"/>
<path d="M228.7 19.9805V88.9805" stroke="#FAECDD" stroke-width="17" stroke-linecap="round" stroke-linejoin="round"/>
<path d="M267.7 19.9805H353.7V65.4805H267.7V88.9805" stroke="#FAECDD" stroke-width="17" stroke-linecap="round" stroke-linejoin="round"/>
<path d="M384.7 88.9805V61.4805C384.7 49.4131 389.494 37.84 398.027 29.3071C406.559 20.7742 418.133 15.9805 430.2 15.9805C442.267 15.9805 453.84 20.7742 462.373 29.3071C470.906 37.84 475.7 49.4131 475.7 61.4805V88.9805" stroke="#FAECDD" stroke-width="17" stroke-linecap="round" stroke-linejoin="round"/>
<path d="M430.2 50.4805L446.2 66.4805L430.2 82.4805L414.2 66.4805L430.2 50.4805Z" fill="#FAECDD" stroke="#FAECDD" stroke-width="5" stroke-linejoin="round"/>
</svg>
