<svg width="143" height="179" viewBox="0 0 143 179" fill="none" xmlns="http://www.w3.org/2000/svg">
<path d="M61.0718 136.939C60.5918 137.739 60.1418 138.489 59.7118 139.189C55.1918 146.719 53.5918 149.379 52.3018 149.239C51.4718 149.149 50.7618 147.919 49.4918 146.099C38.7718 130.689 21.4219 111.669 6.0719 96.4993C-3.3325 87.2032 -1.3476 87.5695 8.8218 78.7093C18.8618 69.9593 22.0518 66.6893 32.7318 54.2593C43.3818 41.8793 54.1718 25.7193 64.1618 7.23926C69.8418 -3.27077 72.6018 -2.61077 79.9818 11.0193C90.1018 29.7293 102.112 46.6993 114.782 60.2093C118.242 63.8993 121.072 67.3393 121.072 67.8593C121.072 68.3693 116.602 72.6793 111.142 77.4393C92.7618 93.4493 73.4518 116.389 61.0718 136.939ZM74.3018 177.249C73.4518 178.209 72.0018 178.999 71.0718 178.999C68.7818 178.999 66.8718 176.639 63.1718 169.249L60.0418 162.999L63.1918 156.749C71.0318 141.169 83.8218 123.089 99.0318 106.069C106.322 97.9193 127.312 78.2793 129.782 77.2993C130.452 77.0293 133.482 78.9693 136.532 81.5993C143.742 87.8193 143.872 90.1293 137.322 96.0093C111.022 119.619 91.2518 144.389 79.0618 168.999C77.2918 172.569 75.1518 176.289 74.3018 177.249Z" fill="white"/>
</svg>
